<?xml version="1.0" standalone="no"?>
<!DOCTYPE svg PUBLIC "-//W3C//DTD SVG 20010904//EN"
 "http://www.w3.org/TR/2001/REC-SVG-20010904/DTD/svg10.dtd">
<svg version="1.0" xmlns="http://www.w3.org/2000/svg"
 width="1024.000000pt" height="1024.000000pt" viewBox="0 0 1024.000000 1024.000000"
 preserveAspectRatio="xMidYMid meet">

<g transform="translate(0.000000,1024.000000) scale(0.100000,-0.100000)"
fill="#000000" stroke="none">
<path d="M4675 9989 c-22 -4 -121 -11 -220 -15 -99 -3 -205 -12 -236 -20 -31
-8 -75 -14 -98 -14 -22 0 -84 -11 -137 -25 -55 -14 -124 -25 -163 -25 -36 0
-88 -7 -115 -15 -30 -9 -90 -15 -152 -15 -56 0 -115 -5 -131 -11 -15 -6 -91
-14 -168 -18 -111 -6 -147 -11 -173 -27 -94 -54 -94 -54 -204 -54 -98 0 -109
-2 -135 -24 -27 -23 -40 -25 -255 -37 -201 -11 -232 -15 -270 -35 -24 -13 -71
-37 -105 -54 l-63 -32 1 -216 c0 -120 4 -239 9 -267 10 -60 4 -68 -112 -126
-116 -59 -170 -96 -198 -137 -22 -32 -38 -41 -115 -67 -100 -34 -136 -55 -165
-95 -18 -25 -20 -45 -20 -179 l0 -151 -39 -24 c-21 -14 -63 -53 -92 -87 -30
-34 -64 -73 -77 -87 -12 -14 -22 -34 -22 -46 0 -12 -18 -41 -40 -66 -22 -25
-40 -48 -40 -52 0 -3 -48 -46 -108 -95 -59 -48 -153 -133 -209 -189 l-103
-100 0 -57 c0 -45 -4 -58 -19 -66 -36 -20 -42 -58 -39 -261 l3 -195 25 -3 25
-3 -3 -219 -3 -220 155 0 156 0 0 -165 0 -165 95 0 95 0 0 -45 0 -45 108 0
c59 0 112 -4 119 -8 9 -5 13 -51 15 -147 l3 -140 66 -3 67 -3 3 -159 c3 -100
8 -163 15 -170 8 -8 74 -11 215 -8 190 3 207 5 247 26 23 12 58 44 76 70 29
40 42 49 86 59 28 7 65 24 81 38 17 14 35 25 41 25 13 0 52 31 125 98 32 28
66 55 76 58 11 3 17 16 17 34 0 31 1 32 83 45 22 4 47 16 59 31 24 27 54 33
44 8 -3 -9 -6 -22 -6 -31 0 -8 -23 -36 -52 -63 -66 -61 -78 -101 -87 -285 -4
-77 -13 -150 -19 -162 -7 -12 -12 -35 -12 -51 0 -30 -21 -55 -55 -66 -11 -3
-26 -18 -33 -33 -7 -16 -23 -45 -36 -67 -20 -33 -44 -99 -97 -272 -5 -17 -9
-71 -9 -120 0 -95 -5 -120 -43 -229 -13 -38 -30 -95 -36 -125 -15 -63 -52
-126 -79 -134 -22 -7 -42 -55 -72 -176 -12 -47 -30 -114 -41 -150 -10 -36 -19
-72 -19 -79 0 -7 -15 -48 -34 -92 -19 -43 -37 -97 -41 -121 -4 -24 -14 -55
-21 -70 -8 -15 -14 -41 -14 -59 0 -20 -15 -55 -39 -93 -43 -69 -86 -159 -94
-196 -3 -14 -15 -56 -26 -95 -12 -38 -26 -99 -32 -135 -5 -36 -19 -83 -29
-106 -11 -22 -20 -46 -20 -53 0 -7 -7 -34 -15 -60 -14 -43 -35 -130 -54 -213
-5 -21 -14 -45 -21 -53 -8 -10 -15 -56 -18 -118 -3 -64 -9 -108 -17 -117 -8
-8 -21 -53 -30 -100 -9 -47 -20 -105 -25 -130 -5 -25 -15 -83 -23 -130 -8 -47
-19 -101 -25 -120 -56 -172 -64 -210 -72 -334 -8 -117 -12 -140 -45 -221 -21
-49 -44 -107 -51 -129 -8 -21 -22 -52 -32 -70 -14 -26 -17 -68 -20 -276 -2
-147 1 -255 6 -271 7 -18 20 -28 43 -33 20 -4 45 -21 66 -46 l35 -40 199 0
199 0 0 -112 c0 -102 2 -116 23 -140 l22 -27 402 -7 401 -7 84 40 c64 31 100
42 158 47 41 4 94 14 117 23 37 13 43 20 49 52 3 20 10 49 15 65 5 16 9 42 9
57 0 15 5 31 10 34 6 3 10 27 10 53 1 102 57 221 134 282 31 25 56 50 56 56 0
16 36 46 83 69 44 21 49 29 108 165 18 41 40 84 50 95 9 11 22 30 28 43 6 12
34 33 62 48 44 22 54 33 78 87 15 34 31 84 35 112 4 27 16 71 27 97 10 27 19
73 19 103 0 53 1 55 35 69 l35 15 0 129 c0 127 0 130 25 146 24 16 25 21 25
109 0 70 5 102 20 136 11 24 20 60 20 80 0 21 7 46 15 57 10 13 14 44 15 95 0
71 2 77 30 102 22 20 30 36 30 61 0 25 6 38 25 50 27 18 36 34 55 106 35 129
36 130 167 130 59 0 127 6 156 14 29 8 114 17 189 20 117 6 150 11 222 36 130
46 212 98 218 140 2 15 19 35 43 52 37 25 51 28 185 37 185 13 253 25 365 61
276 92 301 97 495 115 125 11 176 20 261 48 103 34 109 37 180 109 64 64 82
76 134 90 103 28 197 64 268 102 50 26 81 36 114 36 80 0 123 20 198 92 39 36
84 70 100 74 54 13 156 63 191 94 19 16 41 30 48 30 7 0 31 22 54 49 30 35 57
55 99 71 149 60 221 107 320 210 52 55 108 119 123 143 14 23 55 68 90 100 59
53 94 99 119 154 6 12 53 67 106 122 56 59 95 108 95 120 0 20 29 108 55 166
8 17 19 53 24 80 6 28 15 66 20 85 5 19 15 58 21 85 12 52 31 127 76 305 15
58 32 130 39 160 7 30 20 80 29 112 9 31 16 80 16 110 0 54 24 240 41 316 5
23 9 57 9 75 0 17 7 41 15 51 12 16 15 61 15 235 0 128 -4 230 -11 251 -6 19
-13 149 -15 290 -5 220 -8 269 -29 360 -13 58 -26 128 -29 155 -4 28 -15 70
-25 95 -10 25 -24 63 -31 85 -7 22 -18 47 -25 55 -7 8 -31 50 -54 93 -22 44
-56 98 -76 122 -19 24 -35 49 -35 55 0 7 -20 30 -45 52 -25 22 -45 44 -45 50
0 6 -11 24 -25 40 -14 16 -35 52 -46 79 -16 36 -38 63 -83 98 -59 47 -62 52
-75 112 -7 35 -20 77 -28 94 -29 56 -107 170 -128 185 -23 17 -216 130 -222
130 -3 0 -23 13 -47 29 -53 37 -164 91 -186 91 -10 0 -33 11 -52 24 -19 12
-56 25 -82 28 -26 3 -55 12 -64 21 -40 35 -177 97 -214 97 -23 0 -63 12 -99
30 -51 26 -76 32 -158 37 -89 5 -101 8 -131 34 -25 22 -43 29 -75 29 -24 0
-56 7 -71 15 -16 8 -52 15 -81 15 -68 0 -97 12 -120 50 -20 35 -82 70 -123 70
-36 0 -218 65 -241 86 -16 14 -67 17 -421 25 -222 5 -475 13 -563 19 -187 12
-533 11 -590 -1z m415 -196 c62 -3 111 -10 120 -18 18 -15 133 -13 173 4 38
15 45 14 56 -8 8 -15 6 -25 -11 -46 -26 -33 -15 -46 52 -65 44 -12 64 -13 125
-8 27 3 44 23 19 23 -25 1 -64 37 -64 60 0 29 24 38 70 25 24 -7 61 -6 120 3
122 17 278 12 310 -11 31 -23 200 -82 233 -82 40 0 113 -37 125 -64 17 -38 50
-53 131 -60 59 -5 77 -11 89 -27 12 -17 21 -19 58 -13 37 5 48 3 73 -18 25
-21 43 -26 127 -31 86 -6 108 -11 172 -43 50 -25 81 -35 100 -31 24 5 106 -32
225 -100 12 -7 36 -13 53 -13 16 0 45 -11 64 -25 19 -14 42 -25 52 -25 10 0
44 -13 76 -28 77 -38 362 -201 386 -221 17 -15 109 -150 133 -196 6 -11 16
-47 23 -80 15 -68 27 -85 88 -127 28 -19 50 -45 61 -72 30 -68 111 -187 137
-198 14 -6 27 -23 30 -37 4 -14 21 -42 40 -61 18 -19 50 -69 72 -111 21 -41
46 -86 55 -100 8 -13 25 -53 36 -88 11 -35 25 -69 30 -75 4 -6 14 -49 21 -96
6 -47 20 -115 30 -151 12 -43 16 -78 11 -100 -4 -19 -3 -61 2 -94 4 -33 5 -79
2 -101 -6 -45 8 -230 27 -337 10 -60 9 -72 -5 -97 -9 -15 -17 -40 -17 -55 0
-15 -4 -44 -9 -64 -10 -36 -38 -264 -45 -356 -2 -27 -9 -68 -15 -90 -7 -22
-16 -60 -22 -85 -9 -45 -57 -234 -86 -340 -8 -30 -19 -74 -24 -97 -38 -181
-54 -239 -93 -346 -20 -54 -36 -107 -36 -117 0 -12 -38 -59 -89 -111 -52 -52
-105 -117 -125 -153 -23 -41 -61 -86 -106 -126 -39 -35 -79 -78 -88 -96 -9
-18 -56 -73 -104 -123 -49 -49 -88 -94 -88 -100 0 -6 -20 -20 -45 -32 -25 -12
-48 -25 -51 -30 -3 -5 -13 -9 -22 -9 -9 0 -28 -9 -42 -20 -14 -11 -33 -20 -44
-20 -32 0 -110 -50 -141 -91 -16 -21 -49 -48 -72 -58 -24 -11 -43 -24 -43 -30
0 -14 -119 -68 -167 -76 -35 -5 -52 -17 -101 -70 -73 -77 -87 -85 -155 -85
-58 0 -117 -21 -195 -71 -27 -17 -60 -29 -79 -29 -18 0 -51 -11 -73 -25 -26
-16 -48 -23 -63 -20 -40 10 -171 -91 -224 -174 -1 -2 -26 -9 -55 -17 -29 -7
-73 -20 -97 -29 -24 -9 -67 -16 -95 -16 -149 2 -434 -55 -528 -105 -92 -49
-257 -75 -367 -58 -34 5 -53 2 -78 -12 -33 -17 -34 -17 -49 5 -21 30 -55 21
-109 -28 -22 -20 -50 -44 -63 -53 -13 -8 -26 -28 -31 -44 -5 -19 -26 -40 -62
-65 -97 -65 -197 -88 -399 -93 -68 -2 -114 -8 -130 -17 -18 -10 -61 -14 -151
-14 -113 0 -129 -2 -149 -20 -28 -25 -60 -92 -54 -110 3 -7 1 -16 -5 -20 -6
-3 -11 -19 -11 -34 0 -26 -19 -53 -65 -89 -11 -10 -14 -22 -10 -42 5 -23 2
-32 -17 -44 -34 -22 -69 -88 -58 -106 15 -24 11 -88 -6 -115 -10 -16 -14 -37
-11 -57 3 -23 -3 -48 -20 -81 -30 -60 -40 -136 -23 -176 11 -28 10 -32 -24
-62 -21 -17 -45 -48 -55 -68 -10 -20 -28 -54 -40 -76 -11 -21 -21 -47 -21 -57
0 -10 -5 -27 -12 -38 -13 -21 -4 -61 30 -127 15 -30 15 -35 -5 -85 -12 -29
-25 -73 -28 -98 -4 -25 -20 -74 -36 -110 -27 -59 -35 -68 -80 -90 -33 -15 -56
-34 -66 -54 -8 -17 -21 -38 -28 -46 -7 -8 -33 -62 -58 -120 -46 -106 -51 -112
-120 -139 -15 -6 -36 -25 -47 -43 -11 -18 -42 -51 -71 -73 -34 -27 -58 -56
-74 -90 -32 -72 -55 -149 -55 -186 0 -18 -4 -46 -9 -63 -6 -17 -15 -58 -22
-91 -20 -97 -25 -107 -48 -93 -15 9 -22 8 -36 -5 -19 -20 -35 -14 -35 12 0 10
-7 25 -16 32 -15 12 -21 8 -53 -29 -32 -37 -100 -82 -124 -82 -4 0 -21 -10
-38 -22 -26 -19 -33 -21 -62 -10 -19 7 -54 12 -80 12 -25 0 -79 7 -119 15 -67
15 -77 14 -117 -1 l-44 -17 -24 27 c-22 25 -22 33 -18 138 3 61 9 127 15 147
5 20 10 69 11 109 2 62 -1 76 -19 94 -27 28 -45 19 -72 -38 -19 -37 -21 -50
-12 -65 18 -28 14 -53 -10 -76 -23 -20 -53 -23 -109 -8 -19 5 -33 0 -56 -19
-26 -22 -41 -26 -93 -26 -61 0 -63 1 -102 44 -29 34 -45 44 -65 43 -21 -2 -28
4 -35 28 -13 43 0 141 23 178 10 18 19 38 19 45 0 11 21 64 50 127 31 64 43
124 51 240 5 85 16 153 29 195 35 106 52 170 67 255 7 44 18 100 23 125 5 25
16 83 25 130 9 46 22 91 28 99 7 8 15 60 18 115 3 63 11 113 21 131 17 33 36
102 50 184 5 29 15 66 23 82 8 15 15 39 15 53 0 14 4 27 9 31 12 7 37 94 46
159 4 26 17 82 31 122 13 41 24 81 24 88 0 26 51 128 98 194 13 17 27 56 32
85 5 28 16 70 24 92 8 22 15 50 16 63 0 12 12 46 27 75 25 50 66 178 83 262
11 57 46 185 58 217 6 14 19 29 30 32 28 9 58 56 77 122 48 164 59 200 65 209
4 6 10 24 13 40 3 17 11 49 18 72 10 34 10 49 0 81 -12 36 -11 49 8 119 34
125 78 245 101 273 11 14 23 32 26 41 3 8 20 19 37 25 35 10 36 12 62 139 10
44 23 95 31 113 18 43 18 96 -1 112 -19 16 -19 47 0 80 8 14 15 34 15 45 1 24
46 78 59 71 15 -9 47 53 60 117 16 73 26 93 76 142 39 39 61 89 70 155 2 16
19 62 39 102 46 94 67 175 56 219 -11 50 -30 93 -42 100 -13 8 -106 -39 -165
-84 -101 -77 -139 -101 -206 -128 -39 -16 -81 -39 -92 -49 -12 -11 -24 -20
-28 -20 -4 0 -25 -11 -46 -24 -38 -24 -131 -46 -131 -30 0 4 17 25 37 46 25
26 46 38 64 38 16 0 35 9 46 23 10 12 32 29 48 37 25 13 54 54 91 128 4 8 0
20 -8 28 -13 14 -19 13 -49 -5 -19 -12 -44 -21 -56 -21 -12 0 -25 -5 -29 -11
-4 -7 -24 -9 -52 -6 -51 6 -103 -12 -142 -48 -26 -24 -187 -135 -196 -135 -11
0 41 60 56 65 22 7 44 55 31 68 -6 6 -19 -2 -37 -22 -15 -17 -36 -31 -46 -31
-10 0 -21 -7 -24 -15 -3 -8 -25 -24 -50 -35 -24 -12 -62 -44 -85 -71 -64 -77
-129 -116 -99 -59 15 28 5 38 -18 17 -19 -18 -42 -23 -42 -9 0 4 7 16 16 27
10 14 13 31 9 56 -5 26 -2 39 9 49 21 16 20 46 0 54 -21 8 -55 -14 -118 -77
-46 -47 -106 -75 -128 -61 -5 3 8 25 27 48 19 24 35 53 35 65 0 15 6 21 23 21
53 0 66 10 66 49 -2 60 12 91 57 137 24 24 44 47 44 52 0 4 -10 18 -21 31
l-21 23 -32 -29 c-17 -16 -41 -36 -52 -44 -12 -8 -43 -30 -70 -48 -32 -24 -58
-34 -77 -33 -22 2 -45 -11 -100 -58 -39 -33 -76 -60 -82 -60 -7 0 -31 -14 -54
-30 -33 -24 -43 -28 -47 -16 -6 17 36 78 79 114 35 31 34 45 -4 70 -33 21 -61
19 -80 -4 -6 -8 -21 -14 -34 -14 -12 0 -30 -9 -40 -20 -10 -11 -23 -20 -30
-20 -7 0 -20 -9 -30 -20 -21 -23 -55 -27 -55 -6 0 7 7 19 15 26 8 7 15 17 15
23 0 13 40 57 52 57 16 0 103 73 116 97 10 18 19 23 35 19 17 -4 38 11 95 63
77 73 90 105 50 120 -23 9 -68 62 -68 79 0 5 8 20 18 33 24 30 33 57 23 63 -4
3 -35 -8 -69 -25 -74 -35 -75 -35 -112 -8 -27 21 -30 21 -63 6 -19 -9 -40 -23
-47 -32 -7 -8 -18 -15 -24 -15 -7 0 -31 -16 -53 -35 -23 -19 -46 -35 -52 -35
-16 0 -81 -38 -120 -71 -20 -16 -43 -29 -53 -29 -9 0 -20 -4 -23 -10 -3 -5
-15 -10 -25 -10 -30 0 -13 66 32 123 21 27 38 54 38 61 0 7 24 32 53 56 56 48
116 102 182 166 22 22 49 43 58 47 10 4 27 28 38 54 25 59 40 76 106 120 84
56 135 106 128 125 -14 36 -38 28 -164 -57 -98 -65 -131 -83 -149 -78 -16 4
-33 -2 -52 -16 -39 -28 -43 -27 -36 14 6 29 3 36 -17 50 -13 8 -29 26 -35 40
-15 34 -42 31 -78 -6 -33 -36 -103 -83 -111 -75 -13 13 106 130 288 281 46 39
95 83 109 98 14 16 44 50 68 76 24 28 42 58 42 72 0 13 12 38 28 54 15 17 47
53 72 80 44 48 96 85 123 85 7 0 19 21 26 46 13 45 13 47 -9 64 -19 14 -22 23
-16 51 9 43 10 85 1 125 -13 59 57 114 182 143 59 14 100 42 113 77 10 26 93
82 193 130 37 18 93 51 123 74 44 33 54 46 54 70 0 16 -4 32 -10 35 -19 12
-10 54 25 112 44 73 37 121 -22 144 -35 13 -52 49 -55 118 l-3 64 36 12 c20 7
55 27 78 43 43 32 49 32 110 5 31 -14 35 -14 62 6 37 28 63 26 105 -5 38 -30
60 -26 74 11 11 29 22 31 40 10 9 -11 34 -15 96 -15 45 0 85 4 88 9 3 4 23 11
43 14 21 4 69 22 107 42 38 19 79 35 92 35 14 0 32 11 45 30 29 38 42 42 83
25 45 -19 95 -19 120 0 11 8 35 15 53 15 19 0 50 7 70 15 29 12 58 14 132 9
75 -5 106 -2 142 10 25 9 82 18 125 20 82 5 150 17 200 37 16 6 61 12 99 14
39 1 90 9 115 18 31 10 108 17 240 21 107 3 209 10 225 16 17 5 44 7 60 4 17
-3 77 -8 135 -11z m-4110 -2503 c0 -16 -30 -58 -46 -64 -19 -7 -18 3 6 42 19
31 40 43 40 22z m580 -369 c0 -15 -28 -33 -40 -26 -8 5 -8 11 1 21 13 15 39
19 39 5z m960 -739 c0 -13 -12 -22 -22 -16 -10 6 -1 24 13 24 5 0 9 -4 9 -8z
m-630 -9 c0 -15 -65 -73 -82 -73 -10 0 -30 -7 -44 -16 -31 -21 -41 -12 -26 21
7 16 20 25 34 25 13 0 41 11 63 24 43 26 55 30 55 19z m485 -71 c4 -10 -1 -22
-12 -29 -10 -7 -42 -34 -72 -61 -29 -26 -61 -51 -70 -56 -9 -5 -20 -15 -24
-23 -4 -7 -16 -13 -26 -13 -10 0 -28 -11 -41 -25 -18 -19 -33 -25 -68 -25 -37
0 -49 -5 -71 -31 -78 -92 -105 -119 -116 -119 -7 0 -15 19 -18 43 -6 38 -4 44
26 70 17 16 50 38 72 49 22 11 50 30 63 41 23 21 30 61 12 72 -15 9 -12 25 5
31 9 4 25 -6 41 -25 30 -36 49 -39 64 -11 6 11 21 20 33 20 21 0 64 36 107 87
21 25 86 28 95 5z m1293 -4090 c2 -23 -1 -32 -11 -32 -16 0 -29 34 -20 56 9
24 28 10 31 -24z"/>
<path d="M6067 8842 c-14 -15 -28 -16 -134 -9 -294 19 -499 -20 -665 -126 -37
-23 -73 -37 -109 -42 -30 -4 -76 -13 -103 -21 -27 -8 -80 -14 -116 -14 -91 0
-206 -31 -301 -82 l-79 -42 -16 22 c-8 12 -21 22 -29 22 -8 0 -39 -32 -70 -70
-34 -43 -72 -78 -98 -91 -81 -42 -174 -109 -258 -187 -46 -43 -95 -82 -109
-85 -26 -7 -88 -91 -129 -174 -43 -88 -62 -212 -42 -283 4 -14 -1 -57 -11
-100 -10 -41 -18 -102 -18 -135 0 -71 30 -201 65 -284 21 -50 24 -69 18 -124
-7 -75 9 -195 41 -322 23 -89 24 -94 19 -540 -3 -247 -4 -480 -4 -516 1 -50
-3 -75 -18 -100 -22 -38 -46 -127 -55 -208 -4 -29 -13 -63 -20 -75 -8 -11 -19
-68 -26 -126 -7 -58 -18 -124 -25 -147 -10 -34 -10 -46 0 -60 12 -16 19 -16
84 -5 154 26 492 7 671 -38 41 -10 134 -33 205 -50 290 -71 416 -140 650 -357
82 -77 130 -112 192 -144 46 -23 86 -45 89 -50 2 -5 22 -13 42 -18 26 -8 48
-25 75 -58 93 -120 126 -154 190 -198 49 -33 86 -50 132 -60 36 -7 81 -23 100
-35 30 -18 47 -22 96 -18 59 4 61 6 129 73 92 91 103 122 105 295 1 76 7 158
15 187 14 52 9 97 -22 201 -22 73 32 219 96 262 69 48 94 122 61 180 -8 14
-14 30 -15 37 0 13 59 50 95 59 32 8 95 78 95 105 0 12 -10 39 -22 61 -28 48
-18 58 61 58 52 0 56 2 109 55 l54 54 -4 73 c-5 88 -17 116 -118 268 -108 162
-106 156 -73 172 27 13 28 15 25 84 l-4 70 65 57 c93 81 95 89 64 249 -29 149
-47 298 -47 385 0 32 -9 91 -20 131 -11 39 -20 76 -20 82 0 6 30 10 70 10 49
0 79 5 96 16 20 14 54 17 182 17 148 0 161 -1 213 -25 60 -27 87 -58 121 -135
11 -26 27 -56 36 -66 14 -16 16 -16 34 -1 13 13 18 31 18 71 0 70 -35 145
-102 218 -28 31 -48 58 -45 61 10 10 104 -26 145 -56 43 -31 75 -71 93 -116
18 -48 38 -188 32 -232 -7 -50 9 -77 37 -62 32 17 54 105 54 221 1 102 0 107
-36 180 -20 40 -58 97 -83 126 -25 28 -45 54 -45 57 0 22 150 -22 242 -72 39
-20 50 -23 63 -12 8 7 15 18 15 25 0 16 -94 104 -143 134 -20 12 -35 27 -32
31 3 5 27 12 53 15 125 17 309 83 434 156 101 59 88 96 -23 65 -32 -9 -64 -16
-69 -16 -20 0 0 20 40 40 22 11 48 30 60 42 18 20 19 24 5 37 -13 13 -22 12
-77 -7 -99 -34 -226 -59 -271 -53 -5 1 18 34 51 74 67 80 102 145 127 230 21
72 17 112 -10 112 -15 0 -31 -21 -62 -78 -61 -114 -128 -197 -159 -197 -10 0
-10 7 2 35 37 89 55 254 34 309 -13 34 -47 34 -62 1 -15 -34 -25 -31 -32 10
-4 21 -17 41 -31 51 -18 12 -25 25 -25 49 0 35 -21 60 -44 52 -8 -3 -24 -33
-37 -66 -12 -33 -28 -66 -37 -73 -13 -11 -15 -9 -9 21 6 28 3 39 -15 59 -13
13 -23 35 -23 49 0 14 -8 31 -18 37 -15 9 -22 6 -40 -19 -28 -39 -67 -78 -72
-73 -2 2 5 30 17 61 20 54 20 59 5 74 -15 16 -18 15 -41 -6 -39 -37 -56 -22
-56 47 0 68 -14 90 -42 65 -12 -11 -18 -30 -18 -60 0 -51 -11 -55 -31 -10 -20
45 -51 44 -62 -3 -24 -114 -33 -144 -42 -147 -6 -2 -21 37 -34 86 -22 87 -43
131 -61 131 -22 0 -41 -33 -35 -61 4 -18 2 -29 -4 -29 -6 0 -11 6 -11 14 0 7
-7 19 -15 26 -21 18 -36 2 -65 -67 -13 -32 -35 -76 -49 -98 -35 -56 -38 -29
-11 96 19 86 20 103 8 115 -12 12 -22 6 -71 -41 -65 -63 -134 -115 -152 -115
-9 0 -14 29 -17 95 -3 71 -8 99 -20 112 -21 21 -44 5 -53 -38 -5 -22 -17 -33
-52 -49 -54 -24 -77 -26 -70 -6 8 21 -25 46 -62 46 -38 0 -78 19 -106 50 -50
56 -305 230 -337 230 -8 0 -22 -8 -31 -18z m1110 -424 c-3 -7 -5 -2 -5 12 0
14 2 19 5 13 2 -7 2 -19 0 -25z"/>
</g>
</svg>
